<?xml version="1.0" encoding="utf-8" standalone="no"?>
<!DOCTYPE svg PUBLIC "-//W3C//DTD SVG 1.1//EN"
  "http://www.w3.org/Graphics/SVG/1.1/DTD/svg11.dtd">
<svg xmlns:xlink="http://www.w3.org/1999/xlink" width="618.528125pt" height="322.242783pt" viewBox="0 0 618.528125 322.242783" xmlns="http://www.w3.org/2000/svg" version="1.1">
 <metadata>
  <rdf:RDF xmlns:dc="http://purl.org/dc/elements/1.1/" xmlns:cc="http://creativecommons.org/ns#" xmlns:rdf="http://www.w3.org/1999/02/22-rdf-syntax-ns#">
   <cc:Work>
    <dc:type rdf:resource="http://purl.org/dc/dcmitype/StillImage"/>
    <dc:date>2025-04-24T20:52:54.970305</dc:date>
    <dc:format>image/svg+xml</dc:format>
    <dc:creator>
     <cc:Agent>
      <dc:title>Matplotlib v3.10.0, https://matplotlib.org/</dc:title>
     </cc:Agent>
    </dc:creator>
   </cc:Work>
  </rdf:RDF>
 </metadata>
 <defs>
  <style type="text/css">*{stroke-linejoin: round; stroke-linecap: butt}</style>
 </defs>
 <g id="figure_1">
  <g id="patch_1">
   <path d="M 0 322.242783 
L 618.528125 322.242783 
L 618.528125 0 
L 0 0 
L 0 322.242783 
z
" style="fill: none; opacity: 0"/>
  </g>
  <g id="axes_1">
   <g id="patch_2">
    <path d="M 53.328125 284.686533 
L 611.328125 284.686533 
L 611.328125 7.486533 
L 53.328125 7.486533 
L 53.328125 284.686533 
z
" style="fill: none"/>
   </g>
   <g id="FillBetweenPolyCollection_1">
    <defs>
     <path id="ma5c816ee08" d="M 78.691761 -268.780794 
L 78.691761 -209.290089 
L 81.842524 -222.46531 
L 84.993286 -234.020686 
L 88.144048 -224.961344 
L 91.29481 -239.142737 
L 94.445573 -223.873883 
L 97.596335 -232.076213 
L 100.747097 -236.644371 
L 103.89786 -225.742268 
L 107.048622 -225.216997 
L 110.199384 -227.173062 
L 113.350146 -241.857512 
L 116.500909 -224.469906 
L 119.651671 -224.738757 
L 122.802433 -225.047357 
L 125.953196 -220.540407 
L 129.103958 -226.923651 
L 132.25472 -214.930354 
L 135.405482 -222.289341 
L 138.556245 -223.370564 
L 141.707007 -225.182353 
L 144.857769 -229.937218 
L 148.008532 -231.994082 
L 151.159294 -215.899825 
L 154.310056 -210.041261 
L 157.460818 -208.81052 
L 160.611581 -212.810727 
L 163.762343 -221.939165 
L 166.913105 -228.014585 
L 170.063868 -230.377333 
L 173.21463 -221.294035 
L 176.365392 -216.241456 
L 179.516154 -231.039041 
L 182.666917 -232.259401 
L 185.817679 -226.683365 
L 188.968441 -226.71017 
L 192.119203 -222.651036 
L 195.269966 -231.241345 
L 198.420728 -219.218407 
L 201.57149 -226.216814 
L 204.722253 -215.674446 
L 207.873015 -204.330548 
L 211.023777 -207.85493 
L 214.174539 -208.021305 
L 217.325302 -200.67291 
L 220.476064 -202.803356 
L 223.626826 -207.42215 
L 226.777589 -210.886686 
L 229.928351 -210.22709 
L 233.079113 -227.732085 
L 236.229875 -221.584592 
L 239.380638 -233.808776 
L 242.5314 -237.487837 
L 245.682162 -232.064205 
L 248.832925 -227.414237 
L 251.983687 -235.201876 
L 255.134449 -227.607328 
L 258.285211 -223.21775 
L 261.435974 -225.902454 
L 264.586736 -216.93873 
L 267.737498 -221.945555 
L 270.888261 -213.509117 
L 274.039023 -218.999546 
L 277.189785 -214.669108 
L 280.340547 -198.938523 
L 283.49131 -183.747636 
L 286.642072 -189.253711 
L 289.792834 -198.864376 
L 292.943596 -179.14071 
L 296.094359 -197.078542 
L 299.245121 -191.320383 
L 302.395883 -202.023815 
L 305.546646 -200.647698 
L 308.697408 -202.785891 
L 311.84817 -196.666817 
L 314.998932 -195.85874 
L 318.149695 -200.079239 
L 321.300457 -196.418955 
L 324.451219 -197.487516 
L 327.601982 -192.357484 
L 330.752744 -191.573832 
L 333.903506 -189.197277 
L 337.054268 -188.930283 
L 340.205031 -190.617961 
L 343.355793 -194.432323 
L 346.506555 -185.468994 
L 349.657318 -186.593477 
L 352.80808 -207.625427 
L 355.958842 -205.768631 
L 359.109604 -204.008238 
L 362.260367 -194.34605 
L 365.411129 -181.493834 
L 368.561891 -197.586349 
L 371.712654 -196.848437 
L 374.863416 -213.536646 
L 378.014178 -223.226831 
L 381.16494 -206.821671 
L 384.315703 -195.832024 
L 387.466465 -206.371081 
L 390.617227 -199.654573 
L 393.767989 -199.77483 
L 396.918752 -197.488958 
L 400.069514 -188.763515 
L 403.220276 -192.608457 
L 406.371039 -176.727433 
L 409.521801 -180.010418 
L 412.672563 -178.307022 
L 415.823325 -191.802073 
L 418.974088 -185.317474 
L 422.12485 -179.817533 
L 425.275612 -187.675421 
L 428.426375 -189.477115 
L 431.577137 -184.75946 
L 434.727899 -194.982406 
L 437.878661 -187.392388 
L 441.029424 -173.136345 
L 444.180186 -183.077222 
L 447.330948 -172.478104 
L 450.481711 -176.478568 
L 453.632473 -200.083652 
L 456.783235 -190.169431 
L 459.933997 -177.107796 
L 463.08476 -174.934659 
L 466.235522 -186.509721 
L 469.386284 -181.08217 
L 472.537047 -178.271821 
L 475.687809 -193.01283 
L 478.838571 -183.375294 
L 481.989333 -192.147049 
L 485.140096 -175.418744 
L 488.290858 -191.563746 
L 491.44162 -181.018882 
L 494.592382 -170.759251 
L 497.743145 -159.585354 
L 500.893907 -158.838559 
L 504.044669 -159.75612 
L 507.195432 -165.456069 
L 510.346194 -166.236564 
L 513.496956 -148.590106 
L 516.647718 -150.665909 
L 519.798481 -139.825206 
L 522.949243 -145.299201 
L 526.100005 -141.556213 
L 529.250768 -136.213478 
L 532.40153 -139.13645 
L 535.552292 -143.143111 
L 538.703054 -164.328274 
L 541.853817 -144.098631 
L 545.004579 -141.746567 
L 548.155341 -132.28958 
L 551.306104 -141.117588 
L 554.456866 -140.957923 
L 557.607628 -127.983071 
L 560.75839 -138.563583 
L 563.909153 -142.325019 
L 567.059915 -145.239028 
L 570.210677 -137.631599 
L 573.36144 -142.724992 
L 576.512202 -146.869723 
L 579.662964 -130.572764 
L 582.813726 -138.141899 
L 585.964489 -128.705746 
L 585.964489 -203.232234 
L 585.964489 -203.232234 
L 582.813726 -210.062851 
L 579.662964 -206.019729 
L 576.512202 -224.072544 
L 573.36144 -212.377827 
L 570.210677 -214.371587 
L 567.059915 -214.753794 
L 563.909153 -210.060216 
L 560.75839 -207.917531 
L 557.607628 -200.853321 
L 554.456866 -211.731959 
L 551.306104 -204.421679 
L 548.155341 -197.989134 
L 545.004579 -204.180315 
L 541.853817 -206.157998 
L 538.703054 -225.335986 
L 535.552292 -210.256746 
L 532.40153 -201.316568 
L 529.250768 -196.734152 
L 526.100005 -208.741855 
L 522.949243 -215.019461 
L 519.798481 -211.39611 
L 516.647718 -218.216353 
L 513.496956 -214.801869 
L 510.346194 -237.196645 
L 507.195432 -243.947263 
L 504.044669 -231.518709 
L 500.893907 -225.793595 
L 497.743145 -235.294446 
L 494.592382 -244.325521 
L 491.44162 -249.746348 
L 488.290858 -264.453513 
L 485.140096 -241.410991 
L 481.989333 -258.218715 
L 478.838571 -247.650518 
L 475.687809 -271.238668 
L 472.537047 -250.913016 
L 469.386284 -254.90206 
L 466.235522 -262.929986 
L 463.08476 -251.052716 
L 459.933997 -250.144642 
L 456.783235 -274.813671 
L 453.632473 -282.450781 
L 450.481711 -255.769411 
L 447.330948 -244.44829 
L 444.180186 -257.895681 
L 441.029424 -250.049365 
L 437.878661 -259.276249 
L 434.727899 -269.747533 
L 431.577137 -254.228228 
L 428.426375 -258.663628 
L 425.275612 -264.344696 
L 422.12485 -248.642608 
L 418.974088 -261.000787 
L 415.823325 -263.091882 
L 412.672563 -248.640167 
L 409.521801 -249.006291 
L 406.371039 -244.18018 
L 403.220276 -259.822929 
L 400.069514 -250.857229 
L 396.918752 -265.17557 
L 393.767989 -266.015143 
L 390.617227 -264.311029 
L 387.466465 -276.088308 
L 384.315703 -261.472119 
L 381.16494 -273.739551 
L 378.014178 -288.097727 
L 374.863416 -276.077128 
L 371.712654 -256.536365 
L 368.561891 -259.118584 
L 365.411129 -237.234182 
L 362.260367 -253.253612 
L 359.109604 -263.054256 
L 355.958842 -265.89071 
L 352.80808 -267.359424 
L 349.657318 -243.890995 
L 346.506555 -245.924219 
L 343.355793 -252.970533 
L 340.205031 -251.799755 
L 337.054268 -246.365367 
L 333.903506 -247.604162 
L 330.752744 -249.766428 
L 327.601982 -247.367553 
L 324.451219 -250.923177 
L 321.300457 -252.987605 
L 318.149695 -257.98465 
L 314.998932 -252.048913 
L 311.84817 -256.334053 
L 308.697408 -261.470737 
L 305.546646 -263.779699 
L 302.395883 -263.185618 
L 299.245121 -249.563525 
L 296.094359 -253.54605 
L 292.943596 -240.645189 
L 289.792834 -260.023002 
L 286.642072 -249.947153 
L 283.49131 -243.372409 
L 280.340547 -261.14784 
L 277.189785 -277.397089 
L 274.039023 -279.28902 
L 270.888261 -277.819615 
L 267.737498 -285.488623 
L 264.586736 -275.94895 
L 261.435974 -285.988967 
L 258.285211 -285.743705 
L 255.134449 -289.499328 
L 251.983687 -294.871763 
L 248.832925 -289.778828 
L 245.682162 -293.278607 
L 242.5314 -302.15625 
L 239.380638 -299.492472 
L 236.229875 -284.923216 
L 233.079113 -298.716307 
L 229.928351 -275.738956 
L 226.777589 -272.307804 
L 223.626826 -267.820586 
L 220.476064 -266.91455 
L 217.325302 -265.025277 
L 214.174539 -271.324982 
L 211.023777 -268.935304 
L 207.873015 -260.239385 
L 204.722253 -272.999585 
L 201.57149 -283.940427 
L 198.420728 -274.839523 
L 195.269966 -284.957188 
L 192.119203 -282.670977 
L 188.968441 -288.444331 
L 185.817679 -290.742626 
L 182.666917 -289.492509 
L 179.516154 -291.472819 
L 176.365392 -279.750373 
L 173.21463 -278.622196 
L 170.063868 -294.259597 
L 166.913105 -282.593902 
L 163.762343 -285.060197 
L 160.611581 -276.761613 
L 157.460818 -272.001972 
L 154.310056 -273.639309 
L 151.159294 -276.587486 
L 148.008532 -296.088975 
L 144.857769 -293.140584 
L 141.707007 -284.278919 
L 138.556245 -287.847004 
L 135.405482 -280.689617 
L 132.25472 -276.023911 
L 129.103958 -289.692835 
L 125.953196 -281.124718 
L 122.802433 -287.571617 
L 119.651671 -289.539196 
L 116.500909 -288.746187 
L 113.350146 -301.953564 
L 110.199384 -290.640234 
L 107.048622 -287.55726 
L 103.89786 -287.149854 
L 100.747097 -299.556387 
L 97.596335 -294.020476 
L 94.445573 -286.201543 
L 91.29481 -301.055689 
L 88.144048 -283.212353 
L 84.993286 -289.705657 
L 81.842524 -281.636414 
L 78.691761 -268.780794 
z
" style="stroke: #f77189; stroke-opacity: 0.2"/>
    </defs>
    <g clip-path="url(#pb0ff4ca621)">
     <use xlink:href="#ma5c816ee08" x="0" y="322.242783" style="fill: #f77189; fill-opacity: 0.2; stroke: #f77189; stroke-opacity: 0.2"/>
    </g>
   </g>
   <g id="FillBetweenPolyCollection_2">
    <defs>
     <path id="m67f89b981f" d="M 78.691761 -120.111144 
L 78.691761 -81.495982 
L 81.842524 -74.645337 
L 84.993286 -85.782761 
L 88.144048 -98.311527 
L 91.29481 -98.270739 
L 94.445573 -98.779551 
L 97.596335 -91.738294 
L 100.747097 -100.562606 
L 103.89786 -106.163354 
L 107.048622 -102.555644 
L 110.199384 -98.715653 
L 113.350146 -97.016666 
L 116.500909 -103.660983 
L 119.651671 -96.275839 
L 122.802433 -97.835999 
L 125.953196 -94.900167 
L 129.103958 -93.356917 
L 132.25472 -90.089573 
L 135.405482 -95.840165 
L 138.556245 -94.10096 
L 141.707007 -94.025505 
L 144.857769 -92.100853 
L 148.008532 -104.125808 
L 151.159294 -95.680655 
L 154.310056 -102.486478 
L 157.460818 -94.336314 
L 160.611581 -95.550117 
L 163.762343 -96.43936 
L 166.913105 -84.930164 
L 170.063868 -96.458152 
L 173.21463 -93.740263 
L 176.365392 -83.666264 
L 179.516154 -101.546864 
L 182.666917 -90.623602 
L 185.817679 -94.320863 
L 188.968441 -89.145889 
L 192.119203 -88.533545 
L 195.269966 -85.285223 
L 198.420728 -98.303193 
L 201.57149 -91.207341 
L 204.722253 -104.267454 
L 207.873015 -97.410188 
L 211.023777 -98.308811 
L 214.174539 -103.08069 
L 217.325302 -102.38685 
L 220.476064 -90.044801 
L 223.626826 -99.730709 
L 226.777589 -113.965928 
L 229.928351 -105.204597 
L 233.079113 -90.397039 
L 236.229875 -85.237799 
L 239.380638 -93.376613 
L 242.5314 -86.84065 
L 245.682162 -88.306687 
L 248.832925 -88.394213 
L 251.983687 -94.837887 
L 255.134449 -95.738126 
L 258.285211 -100.14317 
L 261.435974 -85.914233 
L 264.586736 -82.345098 
L 267.737498 -92.594634 
L 270.888261 -83.172073 
L 274.039023 -89.748344 
L 277.189785 -88.465118 
L 280.340547 -97.428557 
L 283.49131 -77.626358 
L 286.642072 -87.088788 
L 289.792834 -68.447038 
L 292.943596 -69.091036 
L 296.094359 -69.401118 
L 299.245121 -60.322243 
L 302.395883 -66.486155 
L 305.546646 -65.621863 
L 308.697408 -70.930216 
L 311.84817 -85.1228 
L 314.998932 -79.866221 
L 318.149695 -72.431726 
L 321.300457 -77.618405 
L 324.451219 -68.834476 
L 327.601982 -71.072041 
L 330.752744 -70.819884 
L 333.903506 -79.613688 
L 337.054268 -83.261636 
L 340.205031 -98.388833 
L 343.355793 -73.067507 
L 346.506555 -75.65851 
L 349.657318 -69.725061 
L 352.80808 -71.417056 
L 355.958842 -77.930863 
L 359.109604 -73.330886 
L 362.260367 -75.063973 
L 365.411129 -79.029534 
L 368.561891 -71.48168 
L 371.712654 -71.133932 
L 374.863416 -69.828036 
L 378.014178 -72.08561 
L 381.16494 -69.520564 
L 384.315703 -78.874757 
L 387.466465 -71.352492 
L 390.617227 -71.186772 
L 393.767989 -75.510074 
L 396.918752 -71.465026 
L 400.069514 -72.52771 
L 403.220276 -75.982399 
L 406.371039 -64.241654 
L 409.521801 -59.242577 
L 412.672563 -58.796263 
L 415.823325 -64.324494 
L 418.974088 -67.724692 
L 422.12485 -63.608219 
L 425.275612 -56.248354 
L 428.426375 -63.534457 
L 431.577137 -62.130157 
L 434.727899 -55.397058 
L 437.878661 -56.495766 
L 441.029424 -50.15625 
L 444.180186 -58.550208 
L 447.330948 -57.027335 
L 450.481711 -76.559101 
L 453.632473 -64.894824 
L 456.783235 -52.453143 
L 459.933997 -60.316704 
L 463.08476 -51.444795 
L 466.235522 -59.31846 
L 469.386284 -75.439694 
L 472.537047 -60.839086 
L 475.687809 -60.545097 
L 478.838571 -62.714708 
L 481.989333 -55.216185 
L 485.140096 -58.218287 
L 488.290858 -50.843161 
L 491.44162 -57.37491 
L 494.592382 -60.194859 
L 497.743145 -61.429285 
L 500.893907 -62.025804 
L 504.044669 -65.569638 
L 507.195432 -67.086589 
L 510.346194 -74.001545 
L 513.496956 -64.546513 
L 516.647718 -70.253342 
L 519.798481 -71.15467 
L 522.949243 -76.562866 
L 526.100005 -54.664573 
L 529.250768 -64.383312 
L 532.40153 -66.033847 
L 535.552292 -74.977769 
L 538.703054 -66.135111 
L 541.853817 -75.002108 
L 545.004579 -69.512908 
L 548.155341 -68.770807 
L 551.306104 -81.309993 
L 554.456866 -66.18481 
L 557.607628 -65.802316 
L 560.75839 -59.225821 
L 563.909153 -76.977958 
L 567.059915 -74.748503 
L 570.210677 -74.86914 
L 573.36144 -67.01543 
L 576.512202 -62.453325 
L 579.662964 -61.340192 
L 582.813726 -76.058849 
L 585.964489 -67.395392 
L 585.964489 -108.936447 
L 585.964489 -108.936447 
L 582.813726 -116.658759 
L 579.662964 -102.209854 
L 576.512202 -101.776785 
L 573.36144 -110.409042 
L 570.210677 -118.208489 
L 567.059915 -115.959864 
L 563.909153 -118.350021 
L 560.75839 -99.66814 
L 557.607628 -109.275948 
L 554.456866 -107.880135 
L 551.306104 -121.846508 
L 548.155341 -111.464308 
L 545.004579 -110.703434 
L 541.853817 -120.920114 
L 538.703054 -109.52626 
L 535.552292 -114.784151 
L 532.40153 -108.881238 
L 529.250768 -104.71257 
L 526.100005 -95.764912 
L 522.949243 -119.125151 
L 519.798481 -112.347664 
L 516.647718 -113.312844 
L 513.496956 -105.00202 
L 510.346194 -117.575859 
L 507.195432 -109.564577 
L 504.044669 -108.469935 
L 500.893907 -102.216795 
L 497.743145 -101.779989 
L 494.592382 -102.960944 
L 491.44162 -96.866072 
L 488.290858 -91.695483 
L 485.140096 -97.202511 
L 481.989333 -97.872096 
L 478.838571 -103.445687 
L 475.687809 -101.093709 
L 472.537047 -102.795335 
L 469.386284 -117.96611 
L 466.235522 -98.930969 
L 463.08476 -91.0405 
L 459.933997 -94.378135 
L 456.783235 -91.743725 
L 453.632473 -108.066498 
L 450.481711 -118.828173 
L 447.330948 -100.22912 
L 444.180186 -102.321639 
L 441.029424 -90.853431 
L 437.878661 -95.321561 
L 434.727899 -98.468675 
L 431.577137 -104.903699 
L 428.426375 -108.734641 
L 425.275612 -96.938767 
L 422.12485 -104.297411 
L 418.974088 -108.744029 
L 415.823325 -105.031965 
L 412.672563 -99.541848 
L 409.521801 -101.660429 
L 406.371039 -108.564602 
L 403.220276 -118.717689 
L 400.069514 -114.586964 
L 396.918752 -115.423107 
L 393.767989 -111.787552 
L 390.617227 -109.959642 
L 387.466465 -111.843241 
L 384.315703 -122.292694 
L 381.16494 -110.224858 
L 378.014178 -115.819749 
L 374.863416 -111.449396 
L 371.712654 -111.08035 
L 368.561891 -114.101159 
L 365.411129 -120.5905 
L 362.260367 -114.483495 
L 359.109604 -112.887255 
L 355.958842 -119.240952 
L 352.80808 -116.968555 
L 349.657318 -110.557361 
L 346.506555 -117.122954 
L 343.355793 -115.074984 
L 340.205031 -144.357516 
L 337.054268 -128.629268 
L 333.903506 -119.67458 
L 330.752744 -111.238222 
L 327.601982 -113.004214 
L 324.451219 -111.082847 
L 321.300457 -117.13246 
L 318.149695 -112.815511 
L 314.998932 -119.613133 
L 311.84817 -126.221921 
L 308.697408 -113.757001 
L 305.546646 -108.14781 
L 302.395883 -107.10427 
L 299.245121 -99.538479 
L 296.094359 -111.24885 
L 292.943596 -109.738932 
L 289.792834 -113.392452 
L 286.642072 -134.291792 
L 283.49131 -119.489477 
L 280.340547 -141.114136 
L 277.189785 -135.106167 
L 274.039023 -132.990931 
L 270.888261 -129.98815 
L 267.737498 -139.153928 
L 264.586736 -126.950069 
L 261.435974 -129.923557 
L 258.285211 -150.041005 
L 255.134449 -139.145432 
L 251.983687 -140.191263 
L 248.832925 -132.827668 
L 245.682162 -131.851108 
L 242.5314 -131.158733 
L 239.380638 -136.912826 
L 236.229875 -127.382163 
L 233.079113 -134.748773 
L 229.928351 -150.59315 
L 226.777589 -160.136404 
L 223.626826 -142.048878 
L 220.476064 -134.433453 
L 217.325302 -146.334529 
L 214.174539 -142.372378 
L 211.023777 -138.279729 
L 207.873015 -142.537067 
L 204.722253 -149.389623 
L 201.57149 -136.539469 
L 198.420728 -141.490756 
L 195.269966 -124.9134 
L 192.119203 -129.049817 
L 188.968441 -129.439104 
L 185.817679 -132.651289 
L 182.666917 -131.427719 
L 179.516154 -143.539307 
L 176.365392 -125.208529 
L 173.21463 -133.675553 
L 170.063868 -136.502563 
L 166.913105 -125.055335 
L 163.762343 -139.223211 
L 160.611581 -137.412138 
L 157.460818 -134.513893 
L 154.310056 -145.133418 
L 151.159294 -140.907874 
L 148.008532 -148.17403 
L 144.857769 -133.543037 
L 141.707007 -132.82452 
L 138.556245 -134.434402 
L 135.405482 -137.159307 
L 132.25472 -129.58145 
L 129.103958 -135.168765 
L 125.953196 -136.935269 
L 122.802433 -142.871514 
L 119.651671 -140.261293 
L 116.500909 -147.421425 
L 113.350146 -138.853527 
L 110.199384 -140.735907 
L 107.048622 -147.978342 
L 103.89786 -147.375362 
L 100.747097 -144.873378 
L 97.596335 -132.651696 
L 94.445573 -139.225012 
L 91.29481 -139.573386 
L 88.144048 -137.711369 
L 84.993286 -122.921845 
L 81.842524 -114.341664 
L 78.691761 -120.111144 
z
" style="stroke: #36ada4; stroke-opacity: 0.2"/>
    </defs>
    <g clip-path="url(#pb0ff4ca621)">
     <use xlink:href="#m67f89b981f" x="0" y="322.242783" style="fill: #36ada4; fill-opacity: 0.2; stroke: #36ada4; stroke-opacity: 0.2"/>
    </g>
   </g>
   <g id="matplotlib.axis_1">
    <g id="xtick_1">
     <g id="line2d_1">
      <defs>
       <path id="m3c76705720" d="M 0 0 
L 0 3.5 
" style="stroke: #ffffff; stroke-width: 0.8"/>
      </defs>
      <g>
       <use xlink:href="#m3c76705720" x="78.691761" y="284.686533" style="fill: #ffffff; stroke: #ffffff; stroke-width: 0.8"/>
      </g>
     </g>
     <g id="text_1">
      <!-- 0 -->
      <g style="fill: #ffffff" transform="translate(75.510511 299.284971) scale(0.1 -0.1)">
       <defs>
        <path id="DejaVuSans-30" d="M 2034 4250 
Q 1547 4250 1301 3770 
Q 1056 3291 1056 2328 
Q 1056 1369 1301 889 
Q 1547 409 2034 409 
Q 2525 409 2770 889 
Q 3016 1369 3016 2328 
Q 3016 3291 2770 3770 
Q 2525 4250 2034 4250 
z
M 2034 4750 
Q 2819 4750 3233 4129 
Q 3647 3509 3647 2328 
Q 3647 1150 3233 529 
Q 2819 -91 2034 -91 
Q 1250 -91 836 529 
Q 422 1150 422 2328 
Q 422 3509 836 4129 
Q 1250 4750 2034 4750 
z
" transform="scale(0.015625)"/>
       </defs>
       <use xlink:href="#DejaVuSans-30"/>
      </g>
     </g>
    </g>
    <g id="xtick_2">
     <g id="line2d_2">
      <g>
       <use xlink:href="#m3c76705720" x="141.707007" y="284.686533" style="fill: #ffffff; stroke: #ffffff; stroke-width: 0.8"/>
      </g>
     </g>
     <g id="text_2">
      <!-- 20 -->
      <g style="fill: #ffffff" transform="translate(135.344507 299.284971) scale(0.1 -0.1)">
       <defs>
        <path id="DejaVuSans-32" d="M 1228 531 
L 3431 531 
L 3431 0 
L 469 0 
L 469 531 
Q 828 903 1448 1529 
Q 2069 2156 2228 2338 
Q 2531 2678 2651 2914 
Q 2772 3150 2772 3378 
Q 2772 3750 2511 3984 
Q 2250 4219 1831 4219 
Q 1534 4219 1204 4116 
Q 875 4013 500 3803 
L 500 4441 
Q 881 4594 1212 4672 
Q 1544 4750 1819 4750 
Q 2544 4750 2975 4387 
Q 3406 4025 3406 3419 
Q 3406 3131 3298 2873 
Q 3191 2616 2906 2266 
Q 2828 2175 2409 1742 
Q 1991 1309 1228 531 
z
" transform="scale(0.015625)"/>
       </defs>
       <use xlink:href="#DejaVuSans-32"/>
       <use xlink:href="#DejaVuSans-30" transform="translate(63.623047 0)"/>
      </g>
     </g>
    </g>
    <g id="xtick_3">
     <g id="line2d_3">
      <g>
       <use xlink:href="#m3c76705720" x="204.722253" y="284.686533" style="fill: #ffffff; stroke: #ffffff; stroke-width: 0.8"/>
      </g>
     </g>
     <g id="text_3">
      <!-- 40 -->
      <g style="fill: #ffffff" transform="translate(198.359753 299.284971) scale(0.1 -0.1)">
       <defs>
        <path id="DejaVuSans-34" d="M 2419 4116 
L 825 1625 
L 2419 1625 
L 2419 4116 
z
M 2253 4666 
L 3047 4666 
L 3047 1625 
L 3713 1625 
L 3713 1100 
L 3047 1100 
L 3047 0 
L 2419 0 
L 2419 1100 
L 313 1100 
L 313 1709 
L 2253 4666 
z
" transform="scale(0.015625)"/>
       </defs>
       <use xlink:href="#DejaVuSans-34"/>
       <use xlink:href="#DejaVuSans-30" transform="translate(63.623047 0)"/>
      </g>
     </g>
    </g>
    <g id="xtick_4">
     <g id="line2d_4">
      <g>
       <use xlink:href="#m3c76705720" x="267.737498" y="284.686533" style="fill: #ffffff; stroke: #ffffff; stroke-width: 0.8"/>
      </g>
     </g>
     <g id="text_4">
      <!-- 60 -->
      <g style="fill: #ffffff" transform="translate(261.374998 299.284971) scale(0.1 -0.1)">
       <defs>
        <path id="DejaVuSans-36" d="M 2113 2584 
Q 1688 2584 1439 2293 
Q 1191 2003 1191 1497 
Q 1191 994 1439 701 
Q 1688 409 2113 409 
Q 2538 409 2786 701 
Q 3034 994 3034 1497 
Q 3034 2003 2786 2293 
Q 2538 2584 2113 2584 
z
M 3366 4563 
L 3366 3988 
Q 3128 4100 2886 4159 
Q 2644 4219 2406 4219 
Q 1781 4219 1451 3797 
Q 1122 3375 1075 2522 
Q 1259 2794 1537 2939 
Q 1816 3084 2150 3084 
Q 2853 3084 3261 2657 
Q 3669 2231 3669 1497 
Q 3669 778 3244 343 
Q 2819 -91 2113 -91 
Q 1303 -91 875 529 
Q 447 1150 447 2328 
Q 447 3434 972 4092 
Q 1497 4750 2381 4750 
Q 2619 4750 2861 4703 
Q 3103 4656 3366 4563 
z
" transform="scale(0.015625)"/>
       </defs>
       <use xlink:href="#DejaVuSans-36"/>
       <use xlink:href="#DejaVuSans-30" transform="translate(63.623047 0)"/>
      </g>
     </g>
    </g>
    <g id="xtick_5">
     <g id="line2d_5">
      <g>
       <use xlink:href="#m3c76705720" x="330.752744" y="284.686533" style="fill: #ffffff; stroke: #ffffff; stroke-width: 0.8"/>
      </g>
     </g>
     <g id="text_5">
      <!-- 80 -->
      <g style="fill: #ffffff" transform="translate(324.390244 299.284971) scale(0.1 -0.1)">
       <defs>
        <path id="DejaVuSans-38" d="M 2034 2216 
Q 1584 2216 1326 1975 
Q 1069 1734 1069 1313 
Q 1069 891 1326 650 
Q 1584 409 2034 409 
Q 2484 409 2743 651 
Q 3003 894 3003 1313 
Q 3003 1734 2745 1975 
Q 2488 2216 2034 2216 
z
M 1403 2484 
Q 997 2584 770 2862 
Q 544 3141 544 3541 
Q 544 4100 942 4425 
Q 1341 4750 2034 4750 
Q 2731 4750 3128 4425 
Q 3525 4100 3525 3541 
Q 3525 3141 3298 2862 
Q 3072 2584 2669 2484 
Q 3125 2378 3379 2068 
Q 3634 1759 3634 1313 
Q 3634 634 3220 271 
Q 2806 -91 2034 -91 
Q 1263 -91 848 271 
Q 434 634 434 1313 
Q 434 1759 690 2068 
Q 947 2378 1403 2484 
z
M 1172 3481 
Q 1172 3119 1398 2916 
Q 1625 2713 2034 2713 
Q 2441 2713 2670 2916 
Q 2900 3119 2900 3481 
Q 2900 3844 2670 4047 
Q 2441 4250 2034 4250 
Q 1625 4250 1398 4047 
Q 1172 3844 1172 3481 
z
" transform="scale(0.015625)"/>
       </defs>
       <use xlink:href="#DejaVuSans-38"/>
       <use xlink:href="#DejaVuSans-30" transform="translate(63.623047 0)"/>
      </g>
     </g>
    </g>
    <g id="xtick_6">
     <g id="line2d_6">
      <g>
       <use xlink:href="#m3c76705720" x="393.767989" y="284.686533" style="fill: #ffffff; stroke: #ffffff; stroke-width: 0.8"/>
      </g>
     </g>
     <g id="text_6">
      <!-- 100 -->
      <g style="fill: #ffffff" transform="translate(384.224239 299.284971) scale(0.1 -0.1)">
       <defs>
        <path id="DejaVuSans-31" d="M 794 531 
L 1825 531 
L 1825 4091 
L 703 3866 
L 703 4441 
L 1819 4666 
L 2450 4666 
L 2450 531 
L 3481 531 
L 3481 0 
L 794 0 
L 794 531 
z
" transform="scale(0.015625)"/>
       </defs>
       <use xlink:href="#DejaVuSans-31"/>
       <use xlink:href="#DejaVuSans-30" transform="translate(63.623047 0)"/>
       <use xlink:href="#DejaVuSans-30" transform="translate(127.246094 0)"/>
      </g>
     </g>
    </g>
    <g id="xtick_7">
     <g id="line2d_7">
      <g>
       <use xlink:href="#m3c76705720" x="456.783235" y="284.686533" style="fill: #ffffff; stroke: #ffffff; stroke-width: 0.8"/>
      </g>
     </g>
     <g id="text_7">
      <!-- 120 -->
      <g style="fill: #ffffff" transform="translate(447.239485 299.284971) scale(0.1 -0.1)">
       <use xlink:href="#DejaVuSans-31"/>
       <use xlink:href="#DejaVuSans-32" transform="translate(63.623047 0)"/>
       <use xlink:href="#DejaVuSans-30" transform="translate(127.246094 0)"/>
      </g>
     </g>
    </g>
    <g id="xtick_8">
     <g id="line2d_8">
      <g>
       <use xlink:href="#m3c76705720" x="519.798481" y="284.686533" style="fill: #ffffff; stroke: #ffffff; stroke-width: 0.8"/>
      </g>
     </g>
     <g id="text_8">
      <!-- 140 -->
      <g style="fill: #ffffff" transform="translate(510.254731 299.284971) scale(0.1 -0.1)">
       <use xlink:href="#DejaVuSans-31"/>
       <use xlink:href="#DejaVuSans-34" transform="translate(63.623047 0)"/>
       <use xlink:href="#DejaVuSans-30" transform="translate(127.246094 0)"/>
      </g>
     </g>
    </g>
    <g id="xtick_9">
     <g id="line2d_9">
      <g>
       <use xlink:href="#m3c76705720" x="582.813726" y="284.686533" style="fill: #ffffff; stroke: #ffffff; stroke-width: 0.8"/>
      </g>
     </g>
     <g id="text_9">
      <!-- 160 -->
      <g style="fill: #ffffff" transform="translate(573.269976 299.284971) scale(0.1 -0.1)">
       <use xlink:href="#DejaVuSans-31"/>
       <use xlink:href="#DejaVuSans-36" transform="translate(63.623047 0)"/>
       <use xlink:href="#DejaVuSans-30" transform="translate(127.246094 0)"/>
      </g>
     </g>
    </g>
    <g id="text_10">
     <!-- Time -->
     <g style="fill: #ffffff" transform="translate(320.094531 312.963096) scale(0.1 -0.1)">
      <defs>
       <path id="DejaVuSans-54" d="M -19 4666 
L 3928 4666 
L 3928 4134 
L 2272 4134 
L 2272 0 
L 1638 0 
L 1638 4134 
L -19 4134 
L -19 4666 
z
" transform="scale(0.015625)"/>
       <path id="DejaVuSans-69" d="M 603 3500 
L 1178 3500 
L 1178 0 
L 603 0 
L 603 3500 
z
M 603 4863 
L 1178 4863 
L 1178 4134 
L 603 4134 
L 603 4863 
z
" transform="scale(0.015625)"/>
       <path id="DejaVuSans-6d" d="M 3328 2828 
Q 3544 3216 3844 3400 
Q 4144 3584 4550 3584 
Q 5097 3584 5394 3201 
Q 5691 2819 5691 2113 
L 5691 0 
L 5113 0 
L 5113 2094 
Q 5113 2597 4934 2840 
Q 4756 3084 4391 3084 
Q 3944 3084 3684 2787 
Q 3425 2491 3425 1978 
L 3425 0 
L 2847 0 
L 2847 2094 
Q 2847 2600 2669 2842 
Q 2491 3084 2119 3084 
Q 1678 3084 1418 2786 
Q 1159 2488 1159 1978 
L 1159 0 
L 581 0 
L 581 3500 
L 1159 3500 
L 1159 2956 
Q 1356 3278 1631 3431 
Q 1906 3584 2284 3584 
Q 2666 3584 2933 3390 
Q 3200 3197 3328 2828 
z
" transform="scale(0.015625)"/>
       <path id="DejaVuSans-65" d="M 3597 1894 
L 3597 1613 
L 953 1613 
Q 991 1019 1311 708 
Q 1631 397 2203 397 
Q 2534 397 2845 478 
Q 3156 559 3463 722 
L 3463 178 
Q 3153 47 2828 -22 
Q 2503 -91 2169 -91 
Q 1331 -91 842 396 
Q 353 884 353 1716 
Q 353 2575 817 3079 
Q 1281 3584 2069 3584 
Q 2775 3584 3186 3129 
Q 3597 2675 3597 1894 
z
M 3022 2063 
Q 3016 2534 2758 2815 
Q 2500 3097 2075 3097 
Q 1594 3097 1305 2825 
Q 1016 2553 972 2059 
L 3022 2063 
z
" transform="scale(0.015625)"/>
      </defs>
      <use xlink:href="#DejaVuSans-54"/>
      <use xlink:href="#DejaVuSans-69" transform="translate(57.958984 0)"/>
      <use xlink:href="#DejaVuSans-6d" transform="translate(85.742188 0)"/>
      <use xlink:href="#DejaVuSans-65" transform="translate(183.154297 0)"/>
     </g>
    </g>
   </g>
   <g id="matplotlib.axis_2">
    <g id="ytick_1">
     <g id="line2d_10">
      <defs>
       <path id="mca9f37e5bd" d="M 0 0 
L -3.5 0 
" style="stroke: #ffffff; stroke-width: 0.8"/>
      </defs>
      <g>
       <use xlink:href="#mca9f37e5bd" x="53.328125" y="274.550042" style="fill: #ffffff; stroke: #ffffff; stroke-width: 0.8"/>
      </g>
     </g>
     <g id="text_11">
      <!-- 1000 -->
      <g style="fill: #ffffff" transform="translate(20.878125 278.34926) scale(0.1 -0.1)">
       <use xlink:href="#DejaVuSans-31"/>
       <use xlink:href="#DejaVuSans-30" transform="translate(63.623047 0)"/>
       <use xlink:href="#DejaVuSans-30" transform="translate(127.246094 0)"/>
       <use xlink:href="#DejaVuSans-30" transform="translate(190.869141 0)"/>
      </g>
     </g>
    </g>
    <g id="ytick_2">
     <g id="line2d_11">
      <g>
       <use xlink:href="#mca9f37e5bd" x="53.328125" y="221.839877" style="fill: #ffffff; stroke: #ffffff; stroke-width: 0.8"/>
      </g>
     </g>
     <g id="text_12">
      <!-- 1200 -->
      <g style="fill: #ffffff" transform="translate(20.878125 225.639096) scale(0.1 -0.1)">
       <use xlink:href="#DejaVuSans-31"/>
       <use xlink:href="#DejaVuSans-32" transform="translate(63.623047 0)"/>
       <use xlink:href="#DejaVuSans-30" transform="translate(127.246094 0)"/>
       <use xlink:href="#DejaVuSans-30" transform="translate(190.869141 0)"/>
      </g>
     </g>
    </g>
    <g id="ytick_3">
     <g id="line2d_12">
      <g>
       <use xlink:href="#mca9f37e5bd" x="53.328125" y="169.129713" style="fill: #ffffff; stroke: #ffffff; stroke-width: 0.8"/>
      </g>
     </g>
     <g id="text_13">
      <!-- 1400 -->
      <g style="fill: #ffffff" transform="translate(20.878125 172.928931) scale(0.1 -0.1)">
       <use xlink:href="#DejaVuSans-31"/>
       <use xlink:href="#DejaVuSans-34" transform="translate(63.623047 0)"/>
       <use xlink:href="#DejaVuSans-30" transform="translate(127.246094 0)"/>
       <use xlink:href="#DejaVuSans-30" transform="translate(190.869141 0)"/>
      </g>
     </g>
    </g>
    <g id="ytick_4">
     <g id="line2d_13">
      <g>
       <use xlink:href="#mca9f37e5bd" x="53.328125" y="116.419548" style="fill: #ffffff; stroke: #ffffff; stroke-width: 0.8"/>
      </g>
     </g>
     <g id="text_14">
      <!-- 1600 -->
      <g style="fill: #ffffff" transform="translate(20.878125 120.218767) scale(0.1 -0.1)">
       <use xlink:href="#DejaVuSans-31"/>
       <use xlink:href="#DejaVuSans-36" transform="translate(63.623047 0)"/>
       <use xlink:href="#DejaVuSans-30" transform="translate(127.246094 0)"/>
       <use xlink:href="#DejaVuSans-30" transform="translate(190.869141 0)"/>
      </g>
     </g>
    </g>
    <g id="ytick_5">
     <g id="line2d_14">
      <g>
       <use xlink:href="#mca9f37e5bd" x="53.328125" y="63.709383" style="fill: #ffffff; stroke: #ffffff; stroke-width: 0.8"/>
      </g>
     </g>
     <g id="text_15">
      <!-- 1800 -->
      <g style="fill: #ffffff" transform="translate(20.878125 67.508602) scale(0.1 -0.1)">
       <use xlink:href="#DejaVuSans-31"/>
       <use xlink:href="#DejaVuSans-38" transform="translate(63.623047 0)"/>
       <use xlink:href="#DejaVuSans-30" transform="translate(127.246094 0)"/>
       <use xlink:href="#DejaVuSans-30" transform="translate(190.869141 0)"/>
      </g>
     </g>
    </g>
    <g id="ytick_6">
     <g id="line2d_15">
      <g>
       <use xlink:href="#mca9f37e5bd" x="53.328125" y="10.999219" style="fill: #ffffff; stroke: #ffffff; stroke-width: 0.8"/>
      </g>
     </g>
     <g id="text_16">
      <!-- 2000 -->
      <g style="fill: #ffffff" transform="translate(20.878125 14.798438) scale(0.1 -0.1)">
       <use xlink:href="#DejaVuSans-32"/>
       <use xlink:href="#DejaVuSans-30" transform="translate(63.623047 0)"/>
       <use xlink:href="#DejaVuSans-30" transform="translate(127.246094 0)"/>
       <use xlink:href="#DejaVuSans-30" transform="translate(190.869141 0)"/>
      </g>
     </g>
    </g>
    <g id="text_17">
     <!-- Mean Area -->
     <g style="fill: #ffffff" transform="translate(14.798438 172.80294) rotate(-90) scale(0.1 -0.1)">
      <defs>
       <path id="DejaVuSans-4d" d="M 628 4666 
L 1569 4666 
L 2759 1491 
L 3956 4666 
L 4897 4666 
L 4897 0 
L 4281 0 
L 4281 4097 
L 3078 897 
L 2444 897 
L 1241 4097 
L 1241 0 
L 628 0 
L 628 4666 
z
" transform="scale(0.015625)"/>
       <path id="DejaVuSans-61" d="M 2194 1759 
Q 1497 1759 1228 1600 
Q 959 1441 959 1056 
Q 959 750 1161 570 
Q 1363 391 1709 391 
Q 2188 391 2477 730 
Q 2766 1069 2766 1631 
L 2766 1759 
L 2194 1759 
z
M 3341 1997 
L 3341 0 
L 2766 0 
L 2766 531 
Q 2569 213 2275 61 
Q 1981 -91 1556 -91 
Q 1019 -91 701 211 
Q 384 513 384 1019 
Q 384 1609 779 1909 
Q 1175 2209 1959 2209 
L 2766 2209 
L 2766 2266 
Q 2766 2663 2505 2880 
Q 2244 3097 1772 3097 
Q 1472 3097 1187 3025 
Q 903 2953 641 2809 
L 641 3341 
Q 956 3463 1253 3523 
Q 1550 3584 1831 3584 
Q 2591 3584 2966 3190 
Q 3341 2797 3341 1997 
z
" transform="scale(0.015625)"/>
       <path id="DejaVuSans-6e" d="M 3513 2113 
L 3513 0 
L 2938 0 
L 2938 2094 
Q 2938 2591 2744 2837 
Q 2550 3084 2163 3084 
Q 1697 3084 1428 2787 
Q 1159 2491 1159 1978 
L 1159 0 
L 581 0 
L 581 3500 
L 1159 3500 
L 1159 2956 
Q 1366 3272 1645 3428 
Q 1925 3584 2291 3584 
Q 2894 3584 3203 3211 
Q 3513 2838 3513 2113 
z
" transform="scale(0.015625)"/>
       <path id="DejaVuSans-20" transform="scale(0.015625)"/>
       <path id="DejaVuSans-41" d="M 2188 4044 
L 1331 1722 
L 3047 1722 
L 2188 4044 
z
M 1831 4666 
L 2547 4666 
L 4325 0 
L 3669 0 
L 3244 1197 
L 1141 1197 
L 716 0 
L 50 0 
L 1831 4666 
z
" transform="scale(0.015625)"/>
       <path id="DejaVuSans-72" d="M 2631 2963 
Q 2534 3019 2420 3045 
Q 2306 3072 2169 3072 
Q 1681 3072 1420 2755 
Q 1159 2438 1159 1844 
L 1159 0 
L 581 0 
L 581 3500 
L 1159 3500 
L 1159 2956 
Q 1341 3275 1631 3429 
Q 1922 3584 2338 3584 
Q 2397 3584 2469 3576 
Q 2541 3569 2628 3553 
L 2631 2963 
z
" transform="scale(0.015625)"/>
      </defs>
      <use xlink:href="#DejaVuSans-4d"/>
      <use xlink:href="#DejaVuSans-65" transform="translate(86.279297 0)"/>
      <use xlink:href="#DejaVuSans-61" transform="translate(147.802734 0)"/>
      <use xlink:href="#DejaVuSans-6e" transform="translate(209.082031 0)"/>
      <use xlink:href="#DejaVuSans-20" transform="translate(272.460938 0)"/>
      <use xlink:href="#DejaVuSans-41" transform="translate(304.248047 0)"/>
      <use xlink:href="#DejaVuSans-72" transform="translate(372.65625 0)"/>
      <use xlink:href="#DejaVuSans-65" transform="translate(411.519531 0)"/>
      <use xlink:href="#DejaVuSans-61" transform="translate(473.042969 0)"/>
     </g>
    </g>
   </g>
   <g id="line2d_16">
    <path d="M 78.691761 81.883254 
L 81.842524 69.153007 
L 84.993286 60.132096 
L 88.144048 69.532432 
L 91.29481 52.969245 
L 94.445573 68.129458 
L 97.596335 60.100248 
L 100.747097 54.691581 
L 103.89786 66.953336 
L 107.048622 66.211489 
L 110.199384 63.933647 
L 113.350146 49.676545 
L 116.500909 66.143545 
L 119.651671 66.971024 
L 122.802433 67.638243 
L 125.953196 73.117986 
L 129.103958 62.666568 
L 132.25472 77.682369 
L 135.405482 69.695059 
L 138.556245 66.371083 
L 141.707007 67.340164 
L 144.857769 60.560118 
L 148.008532 58.696914 
L 151.159294 75.199874 
L 154.310056 82.550842 
L 157.460818 82.570944 
L 160.611581 79.787581 
L 163.762343 69.227682 
L 166.913105 66.764926 
L 170.063868 61.042773 
L 173.21463 72.201577 
L 176.365392 76.278979 
L 179.516154 61.93083 
L 182.666917 62.694713 
L 185.817679 64.504947 
L 188.968441 65.811242 
L 192.119203 70.459842 
L 195.269966 64.024318 
L 198.420728 76.980131 
L 201.57149 68.46785 
L 204.722253 78.792477 
L 207.873015 91.007946 
L 211.023777 84.227129 
L 214.174539 82.04998 
L 217.325302 88.414948 
L 220.476064 86.23908 
L 223.626826 84.660105 
L 226.777589 81.114919 
L 229.928351 77.081792 
L 233.079113 60.201375 
L 236.229875 68.960878 
L 239.380638 54.52391 
L 242.5314 52.948274 
L 245.682162 59.835504 
L 248.832925 64.765184 
L 251.983687 58.250809 
L 255.134449 63.345586 
L 258.285211 67.677021 
L 261.435974 66.945468 
L 264.586736 76.353472 
L 267.737498 68.73774 
L 270.888261 77.422061 
L 274.039023 74.226014 
L 277.189785 76.065083 
L 280.340547 91.672599 
L 283.49131 110.437557 
L 286.642072 103.115626 
L 289.792834 93.47059 
L 292.943596 112.740378 
L 296.094359 97.535356 
L 299.245121 101.195612 
L 302.395883 89.298765 
L 305.546646 87.405565 
L 308.697408 90.616667 
L 311.84817 95.815239 
L 314.998932 98.438479 
L 318.149695 93.109419 
L 321.300457 97.448567 
L 324.451219 97.730558 
L 327.601982 102.782719 
L 330.752744 101.164246 
L 333.903506 103.643462 
L 337.054268 103.944809 
L 340.205031 99.84879 
L 343.355793 97.770946 
L 346.506555 105.427282 
L 349.657318 107.658052 
L 352.80808 85.076522 
L 355.958842 87.18682 
L 359.109604 89.435613 
L 362.260367 98.812706 
L 365.411129 113.258565 
L 368.561891 95.295194 
L 371.712654 96.037718 
L 374.863416 78.26419 
L 378.014178 67.763616 
L 381.16494 81.539544 
L 384.315703 93.193069 
L 387.466465 80.401502 
L 390.617227 90.319515 
L 393.767989 89.068829 
L 396.918752 91.580314 
L 400.069514 103.802897 
L 403.220276 96.365881 
L 406.371039 113.108482 
L 409.521801 108.93538 
L 412.672563 109.400139 
L 415.823325 96.908174 
L 418.974088 98.403351 
L 422.12485 109.106449 
L 425.275612 96.403556 
L 428.426375 100.723239 
L 431.577137 103.715002 
L 434.727899 91.784767 
L 437.878661 98.828932 
L 441.029424 111.26045 
L 444.180186 103.611349 
L 447.330948 113.856743 
L 450.481711 107.265797 
L 453.632473 82.413853 
L 456.783235 90.289259 
L 459.933997 108.913917 
L 463.08476 109.370965 
L 466.235522 97.445812 
L 469.386284 106.605064 
L 472.537047 108.851874 
L 475.687809 93.255313 
L 478.838571 104.84241 
L 481.989333 98.69862 
L 485.140096 114.766011 
L 488.290858 95.529027 
L 491.44162 106.830828 
L 494.592382 116.786859 
L 497.743145 126.084451 
L 500.893907 130.442903 
L 504.044669 127.789883 
L 507.195432 118.94507 
L 510.346194 119.979543 
L 513.496956 142.112735 
L 516.647718 137.137113 
L 519.798481 146.654344 
L 522.949243 141.911913 
L 526.100005 147.726503 
L 529.250768 156.217734 
L 532.40153 151.573959 
L 535.552292 146.123399 
L 538.703054 129.359043 
L 541.853817 147.305596 
L 545.004579 151.354445 
L 548.155341 157.94368 
L 551.306104 151.253997 
L 554.456866 145.865952 
L 557.607628 158.137715 
L 560.75839 148.950505 
L 567.059915 144.170987 
L 570.210677 149.254744 
L 573.36144 146.836137 
L 576.512202 137.447487 
L 579.662964 158.008853 
L 582.813726 149.128272 
L 585.964489 157.36036 
L 585.964489 157.36036 
" clip-path="url(#pb0ff4ca621)" style="fill: none; stroke: #f77189; stroke-width: 2; stroke-linecap: square"/>
   </g>
   <g id="line2d_17">
    <path d="M 78.691761 221.478322 
L 81.842524 228.006442 
L 84.993286 219.056458 
L 88.144048 203.74642 
L 91.29481 204.180606 
L 94.445573 203.587258 
L 97.596335 210.086338 
L 100.747097 200.613578 
L 103.89786 195.731158 
L 107.048622 197.434212 
L 110.199384 201.897395 
L 113.350146 204.587868 
L 116.500909 197.318436 
L 119.651671 204.255489 
L 122.802433 202.087659 
L 125.953196 206.627835 
L 129.103958 207.640376 
L 132.25472 213.241185 
L 135.405482 206.982734 
L 141.707007 207.943561 
L 144.857769 210.563957 
L 148.008532 196.007668 
L 151.159294 204.623523 
L 154.310056 198.28828 
L 157.460818 207.565624 
L 160.611581 205.716265 
L 163.762343 205.004697 
L 166.913105 216.810675 
L 170.063868 205.286858 
L 173.21463 207.727017 
L 176.365392 217.561835 
L 179.516154 200.921231 
L 182.666917 212.232125 
L 185.817679 209.082666 
L 188.968441 213.128973 
L 192.119203 213.67941 
L 195.269966 217.740792 
L 198.420728 203.097412 
L 201.57149 208.36272 
L 204.722253 196.279768 
L 207.873015 200.803987 
L 211.023777 203.439495 
L 214.174539 200.406785 
L 217.325302 198.533006 
L 220.476064 211.141666 
L 223.626826 202.368628 
L 226.777589 185.829655 
L 229.928351 195.063964 
L 233.079113 210.28408 
L 236.229875 216.475031 
L 239.380638 208.513738 
L 242.5314 213.138539 
L 245.682162 213.056699 
L 248.832925 212.028851 
L 251.983687 204.991742 
L 255.134449 204.584234 
L 258.285211 195.945315 
L 261.435974 214.457765 
L 264.586736 217.711839 
L 267.737498 206.590131 
L 270.888261 215.116669 
L 274.039023 211.407426 
L 277.189785 210.309529 
L 280.340547 203.419811 
L 283.49131 224.555249 
L 286.642072 212.03102 
L 289.792834 230.910528 
L 292.943596 233.611814 
L 296.094359 232.128954 
L 299.245121 242.599573 
L 302.395883 235.300443 
L 305.546646 236.447377 
L 308.697408 230.798046 
L 311.84817 216.490067 
L 314.998932 222.678324 
L 318.149695 229.231402 
L 321.300457 224.24378 
L 324.451219 232.78115 
L 327.601982 229.856103 
L 330.752744 231.393267 
L 333.903506 222.270893 
L 337.054268 216.744561 
L 340.205031 202.545406 
L 343.355793 228.149362 
L 346.506555 225.989458 
L 349.657318 231.453522 
L 352.80808 228.760776 
L 355.958842 222.936412 
L 359.109604 229.66747 
L 362.260367 228.288516 
L 365.411129 222.224555 
L 368.561891 228.906747 
L 371.712654 230.886292 
L 374.863416 231.706401 
L 378.014178 229.279317 
L 381.16494 233.344387 
L 384.315703 222.069639 
L 387.466465 230.547544 
L 390.617227 231.652277 
L 393.767989 228.946616 
L 396.918752 229.414379 
L 400.069514 229.428053 
L 403.220276 225.450917 
L 406.371039 236.689559 
L 409.521801 242.650447 
L 412.672563 243.213849 
L 415.823325 237.816686 
L 418.974088 233.83144 
L 422.12485 238.103637 
L 425.275612 246.907041 
L 428.426375 237.099595 
L 431.577137 240.061453 
L 434.727899 246.084113 
L 437.878661 247.394546 
L 441.029424 252.403349 
L 444.180186 242.317903 
L 447.330948 243.699535 
L 450.481711 225.385953 
L 453.632473 235.804288 
L 456.783235 251.761759 
L 459.933997 245.333901 
L 463.08476 251.157838 
L 466.235522 242.491574 
L 469.386284 226.499304 
L 472.537047 241.434574 
L 475.687809 242.26267 
L 478.838571 238.618458 
L 481.989333 245.903632 
L 485.140096 244.481957 
L 488.290858 251.958976 
L 491.44162 244.653644 
L 494.592382 240.527917 
L 497.743145 240.816729 
L 500.893907 240.167441 
L 504.044669 233.858294 
L 507.195432 234.29296 
L 510.346194 227.585033 
L 513.496956 237.897045 
L 516.647718 232.221057 
L 519.798481 232.487579 
L 522.949243 224.666713 
L 526.100005 246.891324 
L 529.250768 238.488516 
L 532.40153 234.412729 
L 535.552292 227.917631 
L 538.703054 233.582667 
L 541.853817 224.79139 
L 545.004579 232.123355 
L 548.155341 232.988201 
L 551.306104 220.795909 
L 554.456866 234.85705 
L 557.607628 234.090064 
L 560.75839 242.015761 
L 563.909153 225.029095 
L 567.059915 227.496274 
L 570.210677 226.358253 
L 573.36144 234.619027 
L 576.512202 240.870642 
L 579.662964 240.384709 
L 582.813726 225.471582 
L 585.964489 234.371177 
L 585.964489 234.371177 
" clip-path="url(#pb0ff4ca621)" style="fill: none; stroke: #36ada4; stroke-width: 2; stroke-linecap: square"/>
   </g>
   <g id="patch_3">
    <path d="M 53.328125 284.686533 
L 53.328125 7.486533 
" style="fill: none; stroke: #ffffff; stroke-width: 0.8; stroke-linejoin: miter; stroke-linecap: square"/>
   </g>
   <g id="patch_4">
    <path d="M 53.328125 284.686533 
L 611.328125 284.686533 
" style="fill: none; stroke: #ffffff; stroke-width: 0.8; stroke-linejoin: miter; stroke-linecap: square"/>
   </g>
  </g>
 </g>
 <defs>
  <clipPath id="pb0ff4ca621">
   <rect x="53.328125" y="7.486533" width="558" height="277.2"/>
  </clipPath>
 </defs>
</svg>
